<!--?xml version="1.0" standalone="no"?-->
              <svg id="sw-js-blob-svg" viewBox="0 0 100 100" xmlns="http://www.w3.org/2000/svg" version="1.1">
                    <defs> 
                        <linearGradient id="sw-gradient" x1="0" x2="1" y1="1" y2="0">
                            <stop id="stop1" stop-color="rgba(248, 117, 55, 1)" offset="0%"></stop>
                            <stop id="stop2" stop-color="rgba(251, 168, 31, 1)" offset="100%"></stop>
                        </linearGradient>
                    </defs>
                <path fill="url(#sw-gradient)" d="M22.7,-27.4C27.8,-22.7,29.4,-14.1,32.2,-4.7C35,4.7,39,14.8,36,21.5C33,28.3,22.9,31.7,13.5,33.5C4.2,35.3,-4.4,35.5,-13.4,33.7C-22.4,31.8,-31.8,27.8,-35,20.9C-38.1,14,-35,4.2,-32.3,-4.8C-29.7,-13.8,-27.4,-21.9,-22.1,-26.6C-16.8,-31.3,-8.4,-32.6,0.2,-32.8C8.8,-33,17.5,-32.2,22.7,-27.4Z" width="100%" height="100%" transform="translate(50 50)" style="transition: all 0.3s ease 0s;" stroke-width="0" stroke="url(#sw-gradient)"></path>
              </svg>